<svg xmlns="http://www.w3.org/2000/svg" width="960" height="500" viewBox="0 0 960 500" role="img" aria-label="Language surface dashboard"><style>text{font-family:'Segoe UI',Arial,sans-serif}</style><rect x="0" y="0" width="960" height="500" rx="28" fill="#111827" /><rect x="18" y="18" width="924" height="464" rx="24" fill="#0B1220" stroke="#23314D" stroke-width="1" /><text x="42" y="62" fill="#E5E7EB" font-size="28" font-weight="700" text-anchor="start">Most used product languages</text><text x="42" y="92" fill="#94A3B8" font-size="15" font-weight="400" text-anchor="start">Grouped from GitHub language bytes across public repositories, focused on the languages that actually define the product surface.</text><rect x="42" y="126" width="876" height="22" rx="11" fill="#111827" stroke="#23314D" stroke-width="1" /><rect x="42" y="126" width="694" height="22" rx="0" fill="#3572A5" /><rect x="736" y="126" width="90" height="22" rx="0" fill="#F1E05A" /><rect x="826" y="126" width="65" height="22" rx="0" fill="#3178C6" /><rect x="891" y="126" width="19" height="22" rx="0" fill="#DEA584" /><rect x="910" y="126" width="8" height="22" rx="0" fill="#563D7C" /><text x="918" y="144" fill="#60A5FA" font-size="14" font-weight="600" text-anchor="end">7.6 MB tracked</text><rect x="42" y="182" width="428" height="74" rx="18" fill="#0F172A" stroke="#23314D" stroke-width="1" /><rect x="60" y="200" width="12" height="12" rx="6" fill="#3572A5" /><text x="84" y="212" fill="#E5E7EB" font-size="20" font-weight="700" text-anchor="start">Python</text><text x="84" y="238" fill="#94A3B8" font-size="14" font-weight="400" text-anchor="start">6.0 MB</text><text x="448" y="228" fill="#3572A5" font-size="28" font-weight="700" text-anchor="end">79.1%</text><rect x="492" y="182" width="428" height="74" rx="18" fill="#0F172A" stroke="#23314D" stroke-width="1" /><rect x="510" y="200" width="12" height="12" rx="6" fill="#F1E05A" /><text x="534" y="212" fill="#E5E7EB" font-size="20" font-weight="700" text-anchor="start">JavaScript</text><text x="534" y="238" fill="#94A3B8" font-size="14" font-weight="400" text-anchor="start">801 KB</text><text x="898" y="228" fill="#F1E05A" font-size="28" font-weight="700" text-anchor="end">10.3%</text><rect x="42" y="272" width="428" height="74" rx="18" fill="#0F172A" stroke="#23314D" stroke-width="1" /><rect x="60" y="290" width="12" height="12" rx="6" fill="#3178C6" /><text x="84" y="302" fill="#E5E7EB" font-size="20" font-weight="700" text-anchor="start">TypeScript</text><text x="84" y="328" fill="#94A3B8" font-size="14" font-weight="400" text-anchor="start">578 KB</text><text x="448" y="318" fill="#3178C6" font-size="28" font-weight="700" text-anchor="end">7.4%</text><rect x="492" y="272" width="428" height="74" rx="18" fill="#0F172A" stroke="#23314D" stroke-width="1" /><rect x="510" y="290" width="12" height="12" rx="6" fill="#DEA584" /><text x="534" y="302" fill="#E5E7EB" font-size="20" font-weight="700" text-anchor="start">Rust</text><text x="534" y="328" fill="#94A3B8" font-size="14" font-weight="400" text-anchor="start">173 KB</text><text x="898" y="318" fill="#DEA584" font-size="28" font-weight="700" text-anchor="end">2.2%</text><rect x="42" y="362" width="428" height="74" rx="18" fill="#0F172A" stroke="#23314D" stroke-width="1" /><rect x="60" y="380" width="12" height="12" rx="6" fill="#563D7C" /><text x="84" y="392" fill="#E5E7EB" font-size="20" font-weight="700" text-anchor="start">CSS</text><text x="84" y="418" fill="#94A3B8" font-size="14" font-weight="400" text-anchor="start">53 KB</text><text x="448" y="408" fill="#563D7C" font-size="28" font-weight="700" text-anchor="end">0.7%</text><rect x="492" y="362" width="428" height="74" rx="18" fill="#0F172A" stroke="#23314D" stroke-width="1" /><rect x="510" y="380" width="12" height="12" rx="6" fill="#E34C26" /><text x="534" y="392" fill="#E5E7EB" font-size="20" font-weight="700" text-anchor="start">HTML</text><text x="534" y="418" fill="#94A3B8" font-size="14" font-weight="400" text-anchor="start">17 KB</text><text x="898" y="408" fill="#E34C26" font-size="28" font-weight="700" text-anchor="end">0.2%</text><text x="42" y="472" fill="#94A3B8" font-size="13" font-weight="400" text-anchor="start">TSX is grouped into TypeScript and JSX into JavaScript, so the chart reflects the code surface you actually ship.</text></svg>