<svg xmlns="http://www.w3.org/2000/svg" shape-rendering="geometricPrecision" width="1240" height="700" viewBox="0 0 1240 700" role="img" aria-labelledby="title desc"><title id="title">GitHub engineering dashboard and telemetry</title><desc id="desc">Animated dashboard summarizing repository freshness, public metrics, recency mix and top repository signals for Mentorzx.</desc><defs><linearGradient id="canvas" x1="40" y1="18" x2="1200" y2="680" gradientUnits="userSpaceOnUse"><stop stop-color="#0B1220" /><stop offset="1" stop-color="#111827" /></linearGradient><linearGradient id="surface" x1="18" y1="18" x2="1222" y2="682" gradientUnits="userSpaceOnUse"><stop stop-color="#09111F" /><stop offset="1" stop-color="#111827" /></linearGradient><linearGradient id="beam" x1="964" y1="60" x2="1120" y2="60" gradientUnits="userSpaceOnUse"><stop stop-color="#22C55E" stop-opacity="0" /><stop offset="0.5" stop-color="#38BDF8" /><stop offset="1" stop-color="#60A5FA" stop-opacity="0" /></linearGradient><linearGradient id="activityFill" x1="0" y1="244" x2="0" y2="382" gradientUnits="userSpaceOnUse"><stop stop-color="#38BDF8" stop-opacity="0.92" /><stop offset="1" stop-color="#2DD4BF" stop-opacity="0.48" /></linearGradient><linearGradient id="activityArea" x1="82" y1="244" x2="564" y2="382" gradientUnits="userSpaceOnUse"><stop stop-color="#38BDF8" stop-opacity="0.24" /><stop offset="1" stop-color="#2DD4BF" stop-opacity="0.02" /></linearGradient><linearGradient id="repoFill" x1="320" y1="0" x2="940" y2="0" gradientUnits="userSpaceOnUse"><stop stop-color="#60A5FA" /><stop offset="1" stop-color="#22C55E" /></linearGradient><radialGradient id="glow" cx="0" cy="0" r="1" gradientUnits="userSpaceOnUse" gradientTransform="translate(1048 66) rotate(90) scale(202 262)"><stop stop-color="#38BDF8" stop-opacity="0.22" /><stop offset="1" stop-color="#38BDF8" stop-opacity="0" /></radialGradient></defs><style>text{font-family:'Segoe UI',Arial,sans-serif}@media (prefers-reduced-motion: reduce) { * { animation: none !important; opacity: 1 !important; transform: none !important; } }</style><rect x="0" y="0" width="1240" height="700" rx="28" fill="url(#canvas)" /><circle cx="1048" cy="66" r="202" fill="url(#glow)" opacity="0.82"><animate attributeName="opacity" values="0.42;0.9;0.42" dur="8.4s" repeatCount="indefinite" /></circle><rect x="18" y="18" width="1204" height="664" rx="24" fill="url(#surface)" stroke="#23314D" stroke-width="1" /><path d="M48 116H1192" stroke="#1E293B" stroke-dasharray="5 7" opacity="0.56" /><rect x="48" y="40" width="210" height="28" rx="14" fill="#0F172A" stroke="#23314D" stroke-width="1" /><text x="153" y="58" fill="#94A3B8" font-size="12" font-weight="700" text-anchor="middle" letter-spacing="1.2">GITHUB TELEMETRY</text><text x="48" y="102" fill="#E5E7EB" font-size="34" font-weight="700" text-anchor="start">Engineering dashboard</text><text x="48" y="128" fill="#94A3B8" font-size="15" font-weight="400" text-anchor="start">Public signal, repository freshness and portfolio momentum in one animated board.</text><rect x="964" y="78" width="132" height="8" rx="4" fill="url(#beam)" opacity="0.34"><animate attributeName="x" values="964;996;964" dur="9.2s" repeatCount="indefinite" /><animate attributeName="opacity" values="0.14;0.52;0.14" dur="9.2s" repeatCount="indefinite" /></rect><circle cx="1140" cy="82" r="4" fill="#38BDF8"><animate attributeName="opacity" values="0.35;1;0.35" dur="4.6s" repeatCount="indefinite" /></circle><text x="1180" y="58" fill="#60A5FA" font-size="15" font-weight="600" text-anchor="end">Active since Oct 2020</text><rect x="48" y="150" width="544" height="274" rx="22" fill="#0F172A" stroke="#23314D" stroke-width="1" /><rect x="614" y="150" width="578" height="330" rx="22" fill="#0F172A" stroke="#23314D" stroke-width="1" /><rect x="48" y="500" width="1144" height="152" rx="22" fill="#0F172A" stroke="#23314D" stroke-width="1" /><rect x="70" y="168" width="170" height="22" rx="9" fill="#0B1220" stroke="#22314A" stroke-width="1" /><text x="155" y="183" fill="#94A3B8" font-size="10" font-weight="700" text-anchor="middle" letter-spacing="1.2">MONTHLY FRESHNESS</text><rect x="636" y="168" width="136" height="22" rx="9" fill="#0B1220" stroke="#22314A" stroke-width="1" /><text x="704" y="183" fill="#94A3B8" font-size="10" font-weight="700" text-anchor="middle" letter-spacing="1.2">PUBLIC SIGNAL</text><rect x="70" y="462" width="178" height="22" rx="9" fill="#0B1220" stroke="#22314A" stroke-width="1" /><text x="159" y="477" fill="#94A3B8" font-size="10" font-weight="700" text-anchor="middle" letter-spacing="1.2">TOP REPOSITORY SIGNAL</text><text x="70" y="208" fill="#E5E7EB" font-size="26" font-weight="700" text-anchor="start">Repository freshness trail</text><text x="70" y="232" fill="#94A3B8" font-size="13" font-weight="400" text-anchor="start">Count of public repositories touched in the last 12 months.</text><text x="636" y="208" fill="#E5E7EB" font-size="26" font-weight="700" text-anchor="start">Compact telemetry</text><text x="636" y="232" fill="#94A3B8" font-size="13" font-weight="400" text-anchor="start">Public metrics and recency buckets pulled from the live public profile surface.</text><text x="70" y="502" fill="#E5E7EB" font-size="24" font-weight="700" text-anchor="start">Top repository signal</text><text x="1180" y="528" fill="#94A3B8" font-size="12" font-weight="400" text-anchor="end">Stars, forks and recency blended into one quick ranking.</text><path d="M82 260H564" stroke="#1E293B" stroke-dasharray="4 7" opacity="0.46" /><path d="M82 290H564" stroke="#1E293B" stroke-dasharray="4 7" opacity="0.46" /><path d="M82 320H564" stroke="#1E293B" stroke-dasharray="4 7" opacity="0.46" /><path d="M82 350H564" stroke="#1E293B" stroke-dasharray="4 7" opacity="0.46" /><path d="M82 380H564" stroke="#1E293B" stroke-dasharray="4 7" opacity="0.46" /><rect x="82" y="244" width="28" height="138" rx="13" fill="#0B1220" stroke="#162033" stroke-width="1" /><rect x="82" y="374" width="28" height="8" rx="13" fill="url(#activityFill)" /><rect x="82" y="378" width="28" height="4" rx="2" fill="#38BDF8" opacity="0.28"><animate attributeName="x" values="82;86;82" dur="5.0s" repeatCount="indefinite" /><animate attributeName="opacity" values="0.14;0.52;0.14" dur="5.0s" repeatCount="indefinite" /></rect><text x="96" y="402" fill="#94A3B8" font-size="11" font-weight="400" text-anchor="middle">MAY</text><circle cx="96" cy="374" r="4" fill="#38BDF8"><animate attributeName="opacity" values="0.35;1;0.35" dur="4.6s" repeatCount="indefinite" /></circle><rect x="122" y="244" width="28" height="138" rx="13" fill="#0B1220" stroke="#162033" stroke-width="1" /><rect x="122" y="374" width="28" height="8" rx="13" fill="url(#activityFill)" /><rect x="122" y="378" width="28" height="4" rx="2" fill="#38BDF8" opacity="0.28"><animate attributeName="x" values="122;126;122" dur="5.2s" repeatCount="indefinite" /><animate attributeName="opacity" values="0.14;0.52;0.14" dur="5.2s" repeatCount="indefinite" /></rect><text x="136" y="402" fill="#94A3B8" font-size="11" font-weight="400" text-anchor="middle">JUN</text><circle cx="136" cy="374" r="4" fill="#2DD4BF"><animate attributeName="opacity" values="0.35;1;0.35" dur="4.8s" repeatCount="indefinite" /></circle><rect x="162" y="244" width="28" height="138" rx="13" fill="#0B1220" stroke="#162033" stroke-width="1" /><rect x="162" y="374" width="28" height="8" rx="13" fill="url(#activityFill)" /><rect x="162" y="378" width="28" height="4" rx="2" fill="#38BDF8" opacity="0.28"><animate attributeName="x" values="162;166;162" dur="5.4s" repeatCount="indefinite" /><animate attributeName="opacity" values="0.14;0.52;0.14" dur="5.4s" repeatCount="indefinite" /></rect><text x="176" y="402" fill="#94A3B8" font-size="11" font-weight="400" text-anchor="middle">JUL</text><circle cx="176" cy="374" r="4" fill="#38BDF8"><animate attributeName="opacity" values="0.35;1;0.35" dur="5.0s" repeatCount="indefinite" /></circle><rect x="202" y="244" width="28" height="138" rx="13" fill="#0B1220" stroke="#162033" stroke-width="1" /><rect x="202" y="374" width="28" height="8" rx="13" fill="url(#activityFill)" /><rect x="202" y="378" width="28" height="4" rx="2" fill="#38BDF8" opacity="0.28"><animate attributeName="x" values="202;206;202" dur="5.6s" repeatCount="indefinite" /><animate attributeName="opacity" values="0.14;0.52;0.14" dur="5.6s" repeatCount="indefinite" /></rect><text x="216" y="402" fill="#94A3B8" font-size="11" font-weight="400" text-anchor="middle">AUG</text><circle cx="216" cy="374" r="4" fill="#2DD4BF"><animate attributeName="opacity" values="0.35;1;0.35" dur="5.1s" repeatCount="indefinite" /></circle><rect x="242" y="244" width="28" height="138" rx="13" fill="#0B1220" stroke="#162033" stroke-width="1" /><rect x="242" y="374" width="28" height="8" rx="13" fill="url(#activityFill)" /><rect x="242" y="378" width="28" height="4" rx="2" fill="#38BDF8" opacity="0.28"><animate attributeName="x" values="242;246;242" dur="5.8s" repeatCount="indefinite" /><animate attributeName="opacity" values="0.14;0.52;0.14" dur="5.8s" repeatCount="indefinite" /></rect><text x="256" y="402" fill="#94A3B8" font-size="11" font-weight="400" text-anchor="middle">SEP</text><circle cx="256" cy="374" r="4" fill="#38BDF8"><animate attributeName="opacity" values="0.35;1;0.35" dur="5.3s" repeatCount="indefinite" /></circle><rect x="282" y="244" width="28" height="138" rx="13" fill="#0B1220" stroke="#162033" stroke-width="1" /><rect x="282" y="374" width="28" height="8" rx="13" fill="url(#activityFill)" /><rect x="282" y="378" width="28" height="4" rx="2" fill="#38BDF8" opacity="0.28"><animate attributeName="x" values="282;286;282" dur="6.0s" repeatCount="indefinite" /><animate attributeName="opacity" values="0.14;0.52;0.14" dur="6.0s" repeatCount="indefinite" /></rect><text x="296" y="402" fill="#94A3B8" font-size="11" font-weight="400" text-anchor="middle">OCT</text><circle cx="296" cy="374" r="4" fill="#2DD4BF"><animate attributeName="opacity" values="0.35;1;0.35" dur="5.5s" repeatCount="indefinite" /></circle><rect x="322" y="244" width="28" height="138" rx="13" fill="#0B1220" stroke="#162033" stroke-width="1" /><rect x="322" y="374" width="28" height="8" rx="13" fill="url(#activityFill)" /><rect x="322" y="378" width="28" height="4" rx="2" fill="#38BDF8" opacity="0.28"><animate attributeName="x" values="322;326;322" dur="6.2s" repeatCount="indefinite" /><animate attributeName="opacity" values="0.14;0.52;0.14" dur="6.2s" repeatCount="indefinite" /></rect><text x="336" y="402" fill="#94A3B8" font-size="11" font-weight="400" text-anchor="middle">NOV</text><circle cx="336" cy="374" r="4" fill="#38BDF8"><animate attributeName="opacity" values="0.35;1;0.35" dur="5.7s" repeatCount="indefinite" /></circle><rect x="362" y="244" width="28" height="138" rx="13" fill="#0B1220" stroke="#162033" stroke-width="1" /><rect x="362" y="374" width="28" height="8" rx="13" fill="url(#activityFill)" /><rect x="362" y="378" width="28" height="4" rx="2" fill="#38BDF8" opacity="0.28"><animate attributeName="x" values="362;366;362" dur="6.4s" repeatCount="indefinite" /><animate attributeName="opacity" values="0.14;0.52;0.14" dur="6.4s" repeatCount="indefinite" /></rect><text x="376" y="402" fill="#94A3B8" font-size="11" font-weight="400" text-anchor="middle">DEC</text><circle cx="376" cy="374" r="4" fill="#2DD4BF"><animate attributeName="opacity" values="0.35;1;0.35" dur="5.9s" repeatCount="indefinite" /></circle><rect x="402" y="244" width="28" height="138" rx="13" fill="#0B1220" stroke="#162033" stroke-width="1" /><rect x="402" y="374" width="28" height="8" rx="13" fill="url(#activityFill)" /><rect x="402" y="378" width="28" height="4" rx="2" fill="#38BDF8" opacity="0.28"><animate attributeName="x" values="402;406;402" dur="6.6s" repeatCount="indefinite" /><animate attributeName="opacity" values="0.14;0.52;0.14" dur="6.6s" repeatCount="indefinite" /></rect><text x="416" y="402" fill="#94A3B8" font-size="11" font-weight="400" text-anchor="middle">JAN</text><circle cx="416" cy="374" r="4" fill="#38BDF8"><animate attributeName="opacity" values="0.35;1;0.35" dur="6.0s" repeatCount="indefinite" /></circle><rect x="442" y="244" width="28" height="138" rx="13" fill="#0B1220" stroke="#162033" stroke-width="1" /><rect x="442" y="374" width="28" height="8" rx="13" fill="url(#activityFill)" /><rect x="442" y="378" width="28" height="4" rx="2" fill="#38BDF8" opacity="0.28"><animate attributeName="x" values="442;446;442" dur="6.8s" repeatCount="indefinite" /><animate attributeName="opacity" values="0.14;0.52;0.14" dur="6.8s" repeatCount="indefinite" /></rect><text x="456" y="402" fill="#94A3B8" font-size="11" font-weight="400" text-anchor="middle">FEB</text><circle cx="456" cy="374" r="4" fill="#2DD4BF"><animate attributeName="opacity" values="0.35;1;0.35" dur="6.2s" repeatCount="indefinite" /></circle><rect x="482" y="244" width="28" height="138" rx="13" fill="#0B1220" stroke="#162033" stroke-width="1" /><rect x="482" y="374" width="28" height="8" rx="13" fill="url(#activityFill)" /><rect x="482" y="378" width="28" height="4" rx="2" fill="#38BDF8" opacity="0.28"><animate attributeName="x" values="482;486;482" dur="7.0s" repeatCount="indefinite" /><animate attributeName="opacity" values="0.14;0.52;0.14" dur="7.0s" repeatCount="indefinite" /></rect><text x="496" y="402" fill="#94A3B8" font-size="11" font-weight="400" text-anchor="middle">MAR</text><circle cx="496" cy="374" r="4" fill="#38BDF8"><animate attributeName="opacity" values="0.35;1;0.35" dur="6.4s" repeatCount="indefinite" /></circle><rect x="522" y="244" width="28" height="138" rx="13" fill="#0B1220" stroke="#162033" stroke-width="1" /><rect x="522" y="244" width="28" height="138" rx="13" fill="url(#activityFill)" /><rect x="522" y="249" width="28" height="4" rx="2" fill="#38BDF8" opacity="0.28"><animate attributeName="x" values="522;526;522" dur="7.2s" repeatCount="indefinite" /><animate attributeName="opacity" values="0.14;0.52;0.14" dur="7.2s" repeatCount="indefinite" /></rect><text x="536" y="402" fill="#94A3B8" font-size="11" font-weight="400" text-anchor="middle">APR</text><circle cx="536" cy="244" r="4" fill="#2DD4BF"><animate attributeName="opacity" values="0.35;1;0.35" dur="6.6s" repeatCount="indefinite" /></circle><text x="536" y="236" fill="#CBD5E1" font-size="11" font-weight="700" text-anchor="middle">6</text><path d="M 96 382 L 96 374 L 136 374 L 176 374 L 216 374 L 256 374 L 296 374 L 336 374 L 376 374 L 416 374 L 456 374 L 496 374 L 536 244 L 536 382 Z" fill="url(#activityArea)" opacity="0.82" /><path d="M 96 374 L 136 374 L 176 374 L 216 374 L 256 374 L 296 374 L 336 374 L 376 374 L 416 374 L 456 374 L 496 374 L 536 244" fill="none" stroke="#38BDF8" stroke-width="2.4" stroke-linecap="round" stroke-linejoin="round" stroke-dasharray="540" stroke-dashoffset="540"><animate attributeName="stroke-dashoffset" values="540;0;0" dur="8.8s" repeatCount="indefinite" /></path><rect x="636" y="254" width="162" height="58" rx="16" fill="#0B1220" stroke="#22314A" stroke-width="1" /><rect x="648" y="264" width="110" height="16" rx="8" fill="#0F172A" stroke="#162033" stroke-width="1" /><text x="703" y="276" fill="#94A3B8" font-size="9" font-weight="700" text-anchor="middle" letter-spacing="0.8">PUBLIC REPOS</text><rect x="750" y="268" width="24" height="5" rx="2" fill="#60A5FA" opacity="0.32"><animate attributeName="x" values="750;758;750" dur="4.8s" repeatCount="indefinite" /><animate attributeName="opacity" values="0.14;0.52;0.14" dur="4.8s" repeatCount="indefinite" /></rect><circle cx="780" cy="270" r="3" fill="#60A5FA"><animate attributeName="opacity" values="0.35;1;0.35" dur="4.2s" repeatCount="indefinite" /></circle><text x="652" y="300" fill="#E5E7EB" font-size="24" font-weight="700" text-anchor="start">11</text><rect x="822" y="254" width="162" height="58" rx="16" fill="#0B1220" stroke="#22314A" stroke-width="1" /><rect x="834" y="264" width="90" height="16" rx="8" fill="#0F172A" stroke="#162033" stroke-width="1" /><text x="879" y="276" fill="#94A3B8" font-size="9" font-weight="700" text-anchor="middle" letter-spacing="0.8">FOLLOWERS</text><rect x="936" y="268" width="24" height="5" rx="2" fill="#2DD4BF" opacity="0.32"><animate attributeName="x" values="936;944;936" dur="5.1s" repeatCount="indefinite" /><animate attributeName="opacity" values="0.14;0.52;0.14" dur="5.1s" repeatCount="indefinite" /></rect><circle cx="966" cy="270" r="3" fill="#2DD4BF"><animate attributeName="opacity" values="0.35;1;0.35" dur="4.5s" repeatCount="indefinite" /></circle><text x="838" y="300" fill="#E5E7EB" font-size="24" font-weight="700" text-anchor="start">3</text><rect x="1008" y="254" width="162" height="58" rx="16" fill="#0B1220" stroke="#22314A" stroke-width="1" /><rect x="1020" y="264" width="110" height="16" rx="8" fill="#0F172A" stroke="#162033" stroke-width="1" /><text x="1075" y="276" fill="#94A3B8" font-size="9" font-weight="700" text-anchor="middle" letter-spacing="0.8">PUBLIC STARS</text><rect x="1122" y="268" width="24" height="5" rx="2" fill="#22C55E" opacity="0.32"><animate attributeName="x" values="1122;1130;1122" dur="5.5s" repeatCount="indefinite" /><animate attributeName="opacity" values="0.14;0.52;0.14" dur="5.5s" repeatCount="indefinite" /></rect><circle cx="1152" cy="270" r="3" fill="#22C55E"><animate attributeName="opacity" values="0.35;1;0.35" dur="4.7s" repeatCount="indefinite" /></circle><text x="1024" y="300" fill="#E5E7EB" font-size="24" font-weight="700" text-anchor="start">2</text><rect x="636" y="326" width="162" height="58" rx="16" fill="#0B1220" stroke="#22314A" stroke-width="1" /><rect x="648" y="336" width="110" height="16" rx="8" fill="#0F172A" stroke="#162033" stroke-width="1" /><text x="703" y="348" fill="#94A3B8" font-size="9" font-weight="700" text-anchor="middle" letter-spacing="0.8">PUBLIC FORKS</text><rect x="750" y="340" width="24" height="5" rx="2" fill="#F59E0B" opacity="0.32"><animate attributeName="x" values="750;758;750" dur="5.8s" repeatCount="indefinite" /><animate attributeName="opacity" values="0.14;0.52;0.14" dur="5.8s" repeatCount="indefinite" /></rect><circle cx="780" cy="342" r="3" fill="#F59E0B"><animate attributeName="opacity" values="0.35;1;0.35" dur="5.0s" repeatCount="indefinite" /></circle><text x="652" y="372" fill="#E5E7EB" font-size="24" font-weight="700" text-anchor="start">2</text><rect x="822" y="326" width="162" height="58" rx="16" fill="#0B1220" stroke="#22314A" stroke-width="1" /><rect x="834" y="336" width="117" height="16" rx="8" fill="#0F172A" stroke="#162033" stroke-width="1" /><text x="892" y="348" fill="#94A3B8" font-size="9" font-weight="700" text-anchor="middle" letter-spacing="0.8">ACTIVE &lt;= 90D</text><rect x="936" y="340" width="24" height="5" rx="2" fill="#38BDF8" opacity="0.32"><animate attributeName="x" values="936;944;936" dur="6.2s" repeatCount="indefinite" /><animate attributeName="opacity" values="0.14;0.52;0.14" dur="6.2s" repeatCount="indefinite" /></rect><circle cx="966" cy="342" r="3" fill="#38BDF8"><animate attributeName="opacity" values="0.35;1;0.35" dur="5.2s" repeatCount="indefinite" /></circle><text x="838" y="372" fill="#E5E7EB" font-size="24" font-weight="700" text-anchor="start">6</text><rect x="1008" y="326" width="162" height="58" rx="16" fill="#0B1220" stroke="#22314A" stroke-width="1" /><rect x="1020" y="336" width="103" height="16" rx="8" fill="#0F172A" stroke="#162033" stroke-width="1" /><text x="1071" y="348" fill="#94A3B8" font-size="9" font-weight="700" text-anchor="middle" letter-spacing="0.8">OPEN ISSUES</text><rect x="1122" y="340" width="24" height="5" rx="2" fill="#A78BFA" opacity="0.32"><animate attributeName="x" values="1122;1130;1122" dur="6.5s" repeatCount="indefinite" /><animate attributeName="opacity" values="0.14;0.52;0.14" dur="6.5s" repeatCount="indefinite" /></rect><circle cx="1152" cy="342" r="3" fill="#A78BFA"><animate attributeName="opacity" values="0.35;1;0.35" dur="5.5s" repeatCount="indefinite" /></circle><text x="1024" y="372" fill="#E5E7EB" font-size="24" font-weight="700" text-anchor="start">0</text><text x="636" y="408" fill="#CBD5E1" font-size="14" font-weight="700" text-anchor="start">Recency mix</text><text x="636" y="434" fill="#94A3B8" font-size="11" font-weight="600" text-anchor="start">Live &lt;=30d</text><rect x="764" y="426" width="336" height="10" rx="5" fill="#0F172A" stroke="#162033" stroke-width="1" /><rect x="764" y="426" width="302" height="10" rx="5" fill="#38BDF8" opacity="0.72" /><rect x="764" y="427" width="52" height="8" rx="4" fill="#38BDF8" opacity="0.34"><animate attributeName="x" values="764;1014;764" dur="6.0s" repeatCount="indefinite" /><animate attributeName="opacity" values="0.14;0.52;0.14" dur="6.0s" repeatCount="indefinite" /></rect><text x="1122" y="434" fill="#E5E7EB" font-size="11" font-weight="700" text-anchor="end">6</text><text x="636" y="454" fill="#94A3B8" font-size="11" font-weight="600" text-anchor="start">Warm &lt;=90d</text><rect x="764" y="446" width="336" height="10" rx="5" fill="#0F172A" stroke="#162033" stroke-width="1" /><rect x="764" y="446" width="12" height="10" rx="5" fill="#2DD4BF" opacity="0.72" /><rect x="764" y="447" width="12" height="8" rx="4" fill="#2DD4BF" opacity="0.34"><animate attributeName="x" values="764;764;764" dur="6.3s" repeatCount="indefinite" /><animate attributeName="opacity" values="0.14;0.52;0.14" dur="6.3s" repeatCount="indefinite" /></rect><text x="1122" y="454" fill="#E5E7EB" font-size="11" font-weight="700" text-anchor="end">0</text><text x="636" y="474" fill="#94A3B8" font-size="11" font-weight="600" text-anchor="start">Stable &lt;=180d</text><rect x="764" y="466" width="336" height="10" rx="5" fill="#0F172A" stroke="#162033" stroke-width="1" /><rect x="764" y="466" width="12" height="10" rx="5" fill="#F59E0B" opacity="0.72" /><rect x="764" y="467" width="12" height="8" rx="4" fill="#F59E0B" opacity="0.34"><animate attributeName="x" values="764;764;764" dur="6.6s" repeatCount="indefinite" /><animate attributeName="opacity" values="0.14;0.52;0.14" dur="6.6s" repeatCount="indefinite" /></rect><text x="1122" y="474" fill="#E5E7EB" font-size="11" font-weight="700" text-anchor="end">0</text><text x="636" y="494" fill="#94A3B8" font-size="11" font-weight="600" text-anchor="start">Watch &gt;180d</text><rect x="764" y="486" width="336" height="10" rx="5" fill="#0F172A" stroke="#162033" stroke-width="1" /><rect x="764" y="486" width="201" height="10" rx="5" fill="#A78BFA" opacity="0.72" /><rect x="764" y="487" width="52" height="8" rx="4" fill="#A78BFA" opacity="0.34"><animate attributeName="x" values="764;913;764" dur="6.9s" repeatCount="indefinite" /><animate attributeName="opacity" values="0.14;0.52;0.14" dur="6.9s" repeatCount="indefinite" /></rect><text x="1122" y="494" fill="#E5E7EB" font-size="11" font-weight="700" text-anchor="end">4</text><text x="70" y="552" fill="#E5E7EB" font-size="13" font-weight="700" text-anchor="start">Mentorzx</text><text x="220" y="552" fill="#94A3B8" font-size="11" font-weight="400" text-anchor="start">updated 0d ago</text><rect x="320" y="543" width="620" height="10" rx="5" fill="#0B1220" stroke="#162033" stroke-width="1" /><rect x="320" y="543" width="601" height="10" rx="5" fill="url(#repoFill)" /><rect x="320" y="544" width="64" height="8" rx="4" fill="#38BDF8" opacity="0.26"><animate attributeName="x" values="320;857;320" dur="6.8s" repeatCount="indefinite" /><animate attributeName="opacity" values="0.14;0.52;0.14" dur="6.8s" repeatCount="indefinite" /></rect><circle cx="921" cy="548" r="3" fill="#22C55E"><animate attributeName="opacity" values="0.35;1;0.35" dur="4.8s" repeatCount="indefinite" /></circle><rect x="968" y="537" width="98" height="24" rx="10" fill="#0B1220" stroke="#1E293B" stroke-width="1" /><rect x="1080" y="537" width="98" height="24" rx="10" fill="#0B1220" stroke="#1E293B" stroke-width="1" /><text x="1017" y="553" fill="#60A5FA" font-size="10" font-weight="700" text-anchor="middle">STARS 0</text><text x="1129" y="553" fill="#22C55E" font-size="10" font-weight="700" text-anchor="middle">FORKS 0</text><text x="70" y="570" fill="#E5E7EB" font-size="13" font-weight="700" text-anchor="start">production-fix-flow</text><text x="220" y="570" fill="#94A3B8" font-size="11" font-weight="400" text-anchor="start">updated 16d ago</text><rect x="320" y="561" width="620" height="10" rx="5" fill="#0B1220" stroke="#162033" stroke-width="1" /><rect x="320" y="561" width="367" height="10" rx="5" fill="url(#repoFill)" /><rect x="320" y="562" width="64" height="8" rx="4" fill="#38BDF8" opacity="0.26"><animate attributeName="x" values="320;623;320" dur="7.1s" repeatCount="indefinite" /><animate attributeName="opacity" values="0.14;0.52;0.14" dur="7.1s" repeatCount="indefinite" /></rect><circle cx="687" cy="566" r="3" fill="#22C55E"><animate attributeName="opacity" values="0.35;1;0.35" dur="5.0s" repeatCount="indefinite" /></circle><rect x="968" y="555" width="98" height="24" rx="10" fill="#0B1220" stroke="#1E293B" stroke-width="1" /><rect x="1080" y="555" width="98" height="24" rx="10" fill="#0B1220" stroke="#1E293B" stroke-width="1" /><text x="1017" y="571" fill="#60A5FA" font-size="10" font-weight="700" text-anchor="middle">STARS 0</text><text x="1129" y="571" fill="#22C55E" font-size="10" font-weight="700" text-anchor="middle">FORKS 0</text><text x="70" y="588" fill="#E5E7EB" font-size="13" font-weight="700" text-anchor="start">formae</text><text x="220" y="588" fill="#94A3B8" font-size="11" font-weight="400" text-anchor="start">updated 18d ago</text><rect x="320" y="579" width="620" height="10" rx="5" fill="#0B1220" stroke="#162033" stroke-width="1" /><rect x="320" y="579" width="360" height="10" rx="5" fill="url(#repoFill)" /><rect x="320" y="580" width="64" height="8" rx="4" fill="#38BDF8" opacity="0.26"><animate attributeName="x" values="320;616;320" dur="7.5s" repeatCount="indefinite" /><animate attributeName="opacity" values="0.14;0.52;0.14" dur="7.5s" repeatCount="indefinite" /></rect><circle cx="680" cy="584" r="3" fill="#22C55E"><animate attributeName="opacity" values="0.35;1;0.35" dur="5.2s" repeatCount="indefinite" /></circle><rect x="968" y="573" width="98" height="24" rx="10" fill="#0B1220" stroke="#1E293B" stroke-width="1" /><rect x="1080" y="573" width="98" height="24" rx="10" fill="#0B1220" stroke="#1E293B" stroke-width="1" /><text x="1017" y="589" fill="#60A5FA" font-size="10" font-weight="700" text-anchor="middle">STARS 0</text><text x="1129" y="589" fill="#22C55E" font-size="10" font-weight="700" text-anchor="middle">FORKS 0</text><text x="70" y="606" fill="#E5E7EB" font-size="13" font-weight="700" text-anchor="start">MCP-register</text><text x="220" y="606" fill="#94A3B8" font-size="11" font-weight="400" text-anchor="start">updated 18d ago</text><rect x="320" y="597" width="620" height="10" rx="5" fill="#0B1220" stroke="#162033" stroke-width="1" /><rect x="320" y="597" width="360" height="10" rx="5" fill="url(#repoFill)" /><rect x="320" y="598" width="64" height="8" rx="4" fill="#38BDF8" opacity="0.26"><animate attributeName="x" values="320;616;320" dur="7.8s" repeatCount="indefinite" /><animate attributeName="opacity" values="0.14;0.52;0.14" dur="7.8s" repeatCount="indefinite" /></rect><circle cx="680" cy="602" r="3" fill="#22C55E"><animate attributeName="opacity" values="0.35;1;0.35" dur="5.4s" repeatCount="indefinite" /></circle><rect x="968" y="591" width="98" height="24" rx="10" fill="#0B1220" stroke="#1E293B" stroke-width="1" /><rect x="1080" y="591" width="98" height="24" rx="10" fill="#0B1220" stroke="#1E293B" stroke-width="1" /><text x="1017" y="607" fill="#60A5FA" font-size="10" font-weight="700" text-anchor="middle">STARS 0</text><text x="1129" y="607" fill="#22C55E" font-size="10" font-weight="700" text-anchor="middle">FORKS 0</text><text x="70" y="624" fill="#E5E7EB" font-size="13" font-weight="700" text-anchor="start">Hermes</text><text x="220" y="624" fill="#94A3B8" font-size="11" font-weight="400" text-anchor="start">updated 18d ago</text><rect x="320" y="615" width="620" height="10" rx="5" fill="#0B1220" stroke="#162033" stroke-width="1" /><rect x="320" y="615" width="360" height="10" rx="5" fill="url(#repoFill)" /><rect x="320" y="616" width="64" height="8" rx="4" fill="#38BDF8" opacity="0.26"><animate attributeName="x" values="320;616;320" dur="8.2s" repeatCount="indefinite" /><animate attributeName="opacity" values="0.14;0.52;0.14" dur="8.2s" repeatCount="indefinite" /></rect><circle cx="680" cy="620" r="3" fill="#22C55E"><animate attributeName="opacity" values="0.35;1;0.35" dur="5.6s" repeatCount="indefinite" /></circle><rect x="968" y="609" width="98" height="24" rx="10" fill="#0B1220" stroke="#1E293B" stroke-width="1" /><rect x="1080" y="609" width="98" height="24" rx="10" fill="#0B1220" stroke="#1E293B" stroke-width="1" /><text x="1017" y="625" fill="#60A5FA" font-size="10" font-weight="700" text-anchor="middle">STARS 0</text><text x="1129" y="625" fill="#22C55E" font-size="10" font-weight="700" text-anchor="middle">FORKS 0</text><text x="48" y="678" fill="#94A3B8" font-size="13" font-weight="400" text-anchor="start">Computed from public repositories and profile metadata.</text><text x="1184" y="678" fill="#94A3B8" font-size="13" font-weight="400" text-anchor="end">Recent surface: Mentorzx, production-fix-flow, formae</text></svg>